<svg width="375" height="755" viewBox="0 0 375 755" fill="none" xmlns="http://www.w3.org/2000/svg">
<circle opacity="0.3" cx="74" cy="210" r="155.5" stroke="#2945FF"/>
<circle opacity="0.3" cx="325" cy="597" r="157.5" stroke="#FF292D"/>
<circle opacity="0.3" cx="361" cy="-28" r="157.5" stroke="#FF0000"/>
<path d="M54.573 84.7843V104.008H46.934C37.284 104.008 29.5088 111.592 29.5088 121.009C29.5088 130.422 37.284 138.007 46.9305 138.007H54.573V157.23C71.9947 153.961 85 139.054 85 121.005C85 103.092 71.9983 88.1846 54.573 84.7843Z" fill="#003791"/>
<path d="M46.9333 144.019C33.9316 144.019 23.3388 133.691 23.3388 121.009C23.3388 108.327 33.928 97.995 46.9262 97.995H48.4031V84H46.9298C26.0238 84 9 100.607 9 121.005C9 141.538 26.0238 158.146 46.9333 158.146H48.4067V144.026H46.9333V144.019Z" fill="#FC5055"/>
</svg>
